<svg xmlns="http://www.w3.org/2000/svg" viewBox="0 0 64 64" fill="none">
  <rect width="64" height="64" rx="16" fill="#0d0b08"/>
  <path d="M14 39.5c0-3.6 2.9-6.5 6.5-6.5h23c3.6 0 6.5 2.9 6.5 6.5V45H14v-5.5Z" fill="#ffd24d"/>
  <path d="M19 33c1.8-4.2 5.5-7 10-7h5c4.5 0 8.2 2.8 10 7H19Z" fill="#ff9f2d"/>
  <rect x="21" y="28" width="22" height="8" rx="4" fill="#1a1202" opacity="0.2"/>
  <rect x="23" y="24" width="10" height="6" rx="2" fill="#fff6dd"/>
  <rect x="35" y="24" width="6" height="6" rx="2" fill="#fff6dd"/>
  <circle cx="22.5" cy="45" r="4.2" fill="#1a1202"/>
  <circle cx="41.5" cy="45" r="4.2" fill="#1a1202"/>
  <circle cx="22.5" cy="45" r="1.8" fill="#ffd24d"/>
  <circle cx="41.5" cy="45" r="1.8" fill="#ffd24d"/>
  <path d="M45 14.5c3 0 5.5 2.4 5.5 5.5 0 1.3-.5 2.5-1.2 3.5H40.7c-.7-1-1.2-2.2-1.2-3.5 0-3.1 2.5-5.5 5.5-5.5Z" fill="#ff5f5f"/>
  <path d="M47.4 12.2 49 9.5M51.8 16.6l2.7-1.6M51.8 24.4l2.7 1.6M47.4 28.8 49 31.5M40.6 28.8 39 31.5M36.2 24.4l-2.7 1.6M36.2 16.6l-2.7-1.6M40.6 12.2 39 9.5" stroke="#ff5f5f" stroke-width="2" stroke-linecap="round"/>
</svg><svg xmlns="http://www.w3.org/2000/svg" viewBox="0 0 64 64" role="img" aria-label="Ride Alarmer icon">
  <defs>
    <linearGradient id="g" x1="0" y1="0" x2="1" y2="1">
      <stop offset="0%" stop-color="#57d7ff" />
      <stop offset="100%" stop-color="#8dffcf" />
    </linearGradient>
  </defs>
  <rect x="4" y="4" width="56" height="56" rx="14" fill="#08121f" />
  <path d="M14 42l8-14h20l8 14" fill="none" stroke="url(#g)" stroke-width="5" stroke-linecap="round" stroke-linejoin="round" />
  <circle cx="22" cy="45" r="4" fill="#8dffcf" />
  <circle cx="42" cy="45" r="4" fill="#57d7ff" />
  <path d="M32 14v9m0-9l-4 4m4-4l4 4" fill="none" stroke="#eef4ff" stroke-width="3" stroke-linecap="round" stroke-linejoin="round" />
</svg>
